# xmcd
#
# Track frame offsets: 
#        150
#        9631
#        26392
#        39491
#        53419
#        71954
#        85716
#        99361
#        115880
#
# Disc length: 1745 seconds
#
# Revision: 2
# Processed by: cddbd v1.5.2PL0 Copyright (c) Steve Scherf et al.
# Submitted via: ExactAudioCopy v0.99pb3
#
DISCID=6506cf09
DTITLE=Dubioza Kolektiv - Firma Ilegal
DYEAR=2008
DGENRE=Reggae
TTITLE0=Suti i trpi
TTITLE1=Firma ilegal
TTITLE2=Svi u strajk
TTITLE3=Blam
TTITLE4=Oni dolaze
TTITLE5=Vlast i policija
TTITLE6=Zrak
TTITLE7=Stav (feat. Gino Banana))
TTITLE8=Dosta (feat. Frenkie)
EXTD=YEAR: 2008
EXTT0=
EXTT1=
EXTT2=
EXTT3=
EXTT4=
EXTT5=
EXTT6=
EXTT7=
EXTT8=
PLAYORDER=
